<svg xmlns="http://www.w3.org/2000/svg" viewBox="0 0 512 512">
  <rect width="512" height="512" rx="50" fill="#3178c6"/>
  <path fill="#fff" d="M317 407v50c8 4 18 7 28 9s21 3 32 3c11 0 21-1 31-4s19-7 26-13 13-13 18-22 7-20 7-32c0-9-1-16-4-23s-7-13-12-18-11-10-18-14-14-8-22-11c-6-3-11-5-16-7s-9-5-12-7-6-5-7-8-2-6-2-10c0-3 1-6 2-9s4-5 6-7 6-4 10-5 8-2 13-2c3 0 7 0 11 1s8 1 12 2 8 2 12 4 7 3 10 5v-47c-7-2-15-4-24-5s-18-2-28-2c-11 0-21 1-30 4s-18 7-25 13-13 13-17 22-6 19-6 31c0 14 4 26 11 36s19 18 35 25c6 3 12 5 18 8s10 5 14 8 7 5 10 8 3 7 3 11c0 3-1 6-2 9s-4 5-7 7-6 4-11 5-9 2-14 2c-10 0-19-2-29-6s-19-9-27-16z M231 265h55v-41H128v41h54v148h49z"/>
</svg>

